<?xml version="1.0" encoding="UTF-8"?>
<svg version="1.1" xmlns="http://www.w3.org/2000/svg" width="225" height="257">
<path d="M0 0 C74.25 0 148.5 0 225 0 C225 84.81 225 169.62 225 257 C150.75 257 76.5 257 0 257 C0 172.19 0 87.38 0 0 Z " fill="#FEFEFE" transform="translate(0,0)"/>
<path d="M0 0 C-1.50476279 14.0208486 -3.22246925 28.01129606 -5 42 C-4.11368896 41.48167603 -4.11368896 41.48167603 -3.20947266 40.95288086 C9.70096443 33.40548837 22.62765281 25.88794605 35.58813477 18.42675781 C40.62914571 15.52436914 45.66609985 12.61590004 50.6875 9.6796875 C51.55850342 9.17139404 52.42950684 8.66310059 53.3269043 8.1394043 C54.92897993 7.20358819 56.52952609 6.26514631 58.12817383 5.32348633 C61.67756624 3.25277136 65.11133366 1.3828067 69 0 C63.30976844 14.93639983 57.0286556 23.56090697 42.2578125 30.24804688 C40.46403148 31.02066942 38.66975419 31.79214076 36.875 32.5625 C35.03952946 33.39569848 33.20617078 34.23356556 31.375 35.07617188 C26.93911277 37.10529115 22.47967218 39.06959181 18 41 C26.76578916 46.45567527 35.60896445 51.73203112 44.5625 56.875 C45.7220893 57.54412513 46.88159472 58.21339563 48.04101562 58.8828125 C52.51079474 61.45849967 52.51079474 61.45849967 57 64 C57.65218506 64.41652832 58.30437012 64.83305664 58.97631836 65.26220703 C62.90111224 66.69310667 66.21885432 65.35394217 69.88427734 63.69311523 C71.34534912 62.8840271 71.34534912 62.8840271 72.8359375 62.05859375 C73.89941406 61.47529297 74.96289062 60.89199219 76.05859375 60.29101562 C77.15300781 59.67935547 78.24742187 59.06769531 79.375 58.4375 C80.49261719 57.82197266 81.61023438 57.20644531 82.76171875 56.57226562 C85.5122388 55.05595329 88.25802013 53.53168507 91 52 C89.794646 51.76812988 88.58929199 51.53625977 87.34741211 51.29736328 C82.85347426 50.43202037 78.36034039 49.56256344 73.86743164 48.69189453 C71.92689169 48.31643134 69.98613867 47.94206752 68.04516602 47.56884766 C65.24698355 47.03059763 62.44960425 46.48833102 59.65234375 45.9453125 C58.7916478 45.78064484 57.93095184 45.61597717 57.04417419 45.44631958 C52.27725258 44.51646687 47.64836057 43.40959135 43 42 C43.62279669 40.41579871 44.24833401 38.83267469 44.875 37.25 C45.22304687 36.36828125 45.57109375 35.4865625 45.9296875 34.578125 C46.28289062 33.72734375 46.63609375 32.8765625 47 32 C47.34272949 31.02969849 47.34272949 31.02969849 47.69238281 30.03979492 C49.5855308 27.0866113 51.83780506 26.27626475 54.9921875 24.78515625 C55.90705681 24.34646461 55.90705681 24.34646461 56.84040833 23.89891052 C58.84629917 22.94100947 60.86013334 22.00135633 62.875 21.0625 C64.26708035 20.40448592 65.65875932 19.74562208 67.05004883 19.0859375 C69.923781 17.72608672 72.80113964 16.37432677 75.68115234 15.02783203 C79.1851251 13.38731646 82.67611064 11.72139743 86.16210938 10.04307556 C88.72380465 8.81130473 91.29034636 7.58990321 93.85821533 6.37106323 C95.66294421 5.5116929 97.46310427 4.64274902 99.26318359 3.77368164 C100.3558252 3.2605542 101.4484668 2.74742676 102.57421875 2.21875 C103.52901123 1.76435547 104.48380371 1.30996094 105.4675293 0.84179688 C108.20019309 -0.06654447 109.38950126 -0.17178942 112 1 C113.046875 3.1796875 113.046875 3.1796875 113.75 5.875 C113.99234375 6.75929688 114.2346875 7.64359375 114.484375 8.5546875 C115 11 115 11 115 14 C113.73581754 14.69965443 112.46334598 15.38434763 111.1875 16.0625 C110.47980469 16.44535156 109.77210938 16.82820313 109.04296875 17.22265625 C107 18 107 18 104 17 C104 16.34 104 15.68 104 15 C103.28046143 15.33209473 102.56092285 15.66418945 101.81958008 16.00634766 C84.95703125 23.7890625 84.95703125 23.7890625 81.50244141 25.37988281 C79.0996662 26.49132965 76.70104528 27.6092084 74.30615234 28.73730469 C73.13648926 29.28547852 71.96682617 29.83365234 70.76171875 30.3984375 C69.70299561 30.89778809 68.64427246 31.39713867 67.5534668 31.91162109 C65 33 65 33 63 33 C63 33.66 63 34.32 63 35 C63.58048096 35.05043457 64.16096191 35.10086914 64.7590332 35.15283203 C71.61815479 35.78909914 78.38959615 36.76978567 85.1875 37.875 C86.27796631 38.05063477 87.36843262 38.22626953 88.49194336 38.40722656 C96.70431578 39.74747601 104.86419068 41.25377751 113 43 C113.95261487 47.76307437 114.08333357 52.1666528 114 57 C91.06482728 64.83486993 91.06482728 64.83486993 79.6875 68 C78.57882568 68.31070435 78.57882568 68.31070435 77.44775391 68.62768555 C74.53928366 69.41767871 72.02868946 70 69 70 C69 70.66 69 71.32 69 72 C52.29157175 76.22323462 52.29157175 76.22323462 44 78 C46.89585905 75.70351643 49.8172031 73.95652443 53.125 72.3125 C53.99382812 71.87550781 54.86265625 71.43851562 55.7578125 70.98828125 C58 70 58 70 60 70 C60 69.34 60 68.68 60 68 C58.71697998 67.74259033 57.43395996 67.48518066 56.11206055 67.2199707 C50.959781 66.07166151 46.13288561 64.35748343 41.20703125 62.48046875 C39.84429329 61.96979607 39.84429329 61.96979607 38.45402527 61.44880676 C35.57136356 60.36733154 32.69185304 59.27774987 29.8125 58.1875 C26.02807897 56.76236528 22.24250261 55.34031073 18.45703125 53.91796875 C17.55155548 53.57700165 16.64607971 53.23603455 15.71316528 52.88473511 C8.50372252 50.17447215 1.26723976 47.55122391 -6 45 C-6.05534912 45.59949463 -6.11069824 46.19898926 -6.16772461 46.81665039 C-6.42253147 49.56543572 -6.67999616 52.31396606 -6.9375 55.0625 C-7.02451172 56.00544922 -7.11152344 56.94839844 -7.20117188 57.91992188 C-7.67642683 62.97170607 -8.22789068 67.98476739 -9 73 C-12.66398299 71.31029911 -15.90832572 69.12699789 -19.25 66.875 C-20.32765625 66.15054688 -21.4053125 65.42609375 -22.515625 64.6796875 C-23.33546875 64.12539062 -24.1553125 63.57109375 -25 63 C-24.41245535 54.79047196 -22.83604797 46.91530284 -21.04370117 38.90332031 C-20.56064446 36.74169665 -20.08730552 34.57810897 -19.61523438 32.4140625 C-18.31160253 26.5046269 -16.92117537 20.74346564 -15 15 C-14.81523585 13.12669677 -14.64801075 11.25156484 -14.5 9.375 C-14.02734375 6.50390625 -14.02734375 6.50390625 -13 4 C-9.02696365 1.17396197 -4.84611898 0 0 0 Z " fill="#0B0B0B" transform="translate(56,92)"/>
<path d="M0 0 C0.66 0.33 1.32 0.66 2 1 C2 1.66 2 2.32 2 3 C-3.75 6 -3.75 6 -6 6 C-6.268125 6.845625 -6.53625 7.69125 -6.8125 8.5625 C-8.04782967 12.13845432 -9.49434451 15.53080475 -11 19 C4.75952711 23.40644673 20.91561604 26.07929127 37 29 C32.98677014 33.47761909 27.39089664 35.89503901 22.1875 38.75 C20.56618164 39.67232422 20.56618164 39.67232422 18.91210938 40.61328125 C17.86216797 41.18949219 16.81222656 41.76570313 15.73046875 42.359375 C14.77551514 42.89014648 13.82056152 43.42091797 12.83666992 43.96777344 C8.54480693 45.52952546 5.58755806 44.72165974 1.5090332 42.86767578 C0.69781006 42.3982959 -0.11341309 41.92891602 -0.94921875 41.4453125 C-1.8714624 40.91768311 -2.79370605 40.39005371 -3.74389648 39.84643555 C-4.71528564 39.27836182 -5.6866748 38.71028809 -6.6875 38.125 C-7.69176025 37.5472583 -8.69602051 36.9695166 -9.73071289 36.37426758 C-12.82548963 34.59136199 -15.91292356 32.7961978 -19 31 C-20.9109815 29.89630939 -22.82241938 28.7934085 -24.734375 27.69140625 C-29.16187014 25.13719132 -33.58280013 22.57197519 -38 20 C-35.97851033 17.82010058 -34.144113 16.38887543 -31.47827148 15.08300781 C-30.78422714 14.73965393 -30.0901828 14.39630005 -29.37510681 14.0425415 C-28.6312825 13.68303406 -27.88745819 13.32352661 -27.12109375 12.953125 C-26.35322037 12.57766541 -25.58534698 12.20220581 -24.79420471 11.81536865 C-23.17430315 11.02563666 -21.55283797 10.239105 -19.92993164 9.45556641 C-17.43827211 8.25037346 -14.95436665 7.03016424 -12.47070312 5.80859375 C-10.89627917 5.04335288 -9.32142378 4.27899887 -7.74609375 3.515625 C-7.00024521 3.14802063 -6.25439667 2.78041626 -5.48594666 2.40167236 C-3.68542176 1.53972161 -1.8453577 0.76125155 0 0 Z " fill="#F8F8F8" transform="translate(111,114)"/>
<path d="M0 0 C1.9996441 0.03772913 4.00054061 0.04649906 6 0 C6 0.33 6 0.66 6 1 C-10.70842825 5.22323462 -10.70842825 5.22323462 -19 7 C-16.15067313 4.76265326 -13.27151761 2.93114944 -10.0625 1.25 C-8.81146484 0.57710937 -8.81146484 0.57710937 -7.53515625 -0.109375 C-4.53192499 -1.1644393 -3.03041723 -0.81702425 0 0 Z " fill="#3D3D3D" transform="translate(119,163)"/>
<path d="M0 0 C1.03125 0.495 2.0625 0.99 3.125 1.5 C6.52451578 2.97473902 9.27021549 3.27291106 13 3 C12.67 3.66 12.34 4.32 12 5 C10.35 5 8.7 5 7 5 C6.67 5.66 6.34 6.32 6 7 C6 6.34 6 5.68 6 5 C5.38511719 4.87882813 4.77023438 4.75765625 4.13671875 4.6328125 C3.32847656 4.46523437 2.52023438 4.29765625 1.6875 4.125 C0.88699219 3.96257812 0.08648437 3.80015625 -0.73828125 3.6328125 C-3 3 -3 3 -6 1 C-3.03 1.495 -3.03 1.495 0 2 C0 1.34 0 0.68 0 0 Z " fill="#383838" transform="translate(110,155)"/>
<path d="M0 0 C-0.66 5.94 -1.32 11.88 -2 18 C-2.33 18 -2.66 18 -3 18 C-3.11138159 12.54230189 -2.91657981 7.38490641 -2 2 C-2.99 1.67 -3.98 1.34 -5 1 C-3 0 -3 0 0 0 Z " fill="#272727" transform="translate(56,92)"/>
<path d="M0 0 C0.66 0.33 1.32 0.66 2 1 C2 1.66 2 2.32 2 3 C-3.75 6 -3.75 6 -6 6 C-6 5.01 -6 4.02 -6 3 C-4.03533587 1.93224776 -2.03144641 0.93446535 0 0 Z " fill="#E0E0E0" transform="translate(111,114)"/>
</svg>
